/vscmnt/brussel_pixiu_data/_data_brussel/112/vsc11236/PredSimResults/SUBJ09opt3D/trackIG/worker_05.mot
version=1
nRows=8
nColumns=50
inDegrees=yes
endheader
                time	         pelvis_tilt	         pelvis_list	     pelvis_rotation	           pelvis_tx	           pelvis_ty	           pelvis_tz	       hip_flexion_r	     hip_adduction_r	      hip_rotation_r	        knee_angle_r	       ankle_angle_r	         mtp_angle_r	       hip_flexion_l	     hip_adduction_l	      hip_rotation_l	        knee_angle_l	       ankle_angle_l	         mtp_angle_l	    lumbar_extension	      lumbar_bending	     lumbar_rotation	 ercspn_r/activation	 intobl_r/activation	 extobl_r/activation	    abd_r/activation	    add_r/activation	hamstrings_r/activation	bifemsh_r/activation	glut_max_r/activation	iliopsoas_r/activation	rect_fem_r/activation	  vasti_r/activation	gastroc_r/activation	 soleus_r/activation	tib_ant_r/activation	 ercspn_l/activation	 intobl_l/activation	 extobl_l/activation	    abd_l/activation	    add_l/activation	hamstrings_l/activation	bifemsh_l/activation	glut_max_l/activation	iliopsoas_l/activation	rect_fem_l/activation	  vasti_l/activation	gastroc_l/activation	 soleus_l/activation	tib_ant_l/activation	
          0.00000000	         -3.20749863	         -0.60823684	          8.35283303	          0.00000000	          0.99793661	         -0.00371526	         23.92539444	         -1.24511062	        -10.07794728	         -0.79321839	          2.04853081	          0.23886308	        -11.16668806	         -2.64395578	         -8.20912651	        -12.91182833	          5.89603703	         33.51538632	        -13.11391101	         -2.47871430	         -8.71724535	          0.01570431	          0.20079319	          0.04872530	          0.01000001	          0.22930981	          0.04692814	          0.04456022	          0.02519250	          0.09109547	          0.02085135	          0.01705730	          0.01000241	          0.01000004	          0.29766445	          0.01000026	          0.01000006	          0.01000005	          0.04258442	          0.01000016	          0.01729590	          0.07813923	          0.01902573	          0.01000054	          0.01001219	          0.01000037	          0.24029928	          0.23917554	          0.01000018	
          0.01433111	         -3.31015769	         -0.74941447	          8.26973743	          0.01909323	          0.99591485	         -0.00260457	         23.33737729	         -0.93745651	        -10.31176944	         -1.38416207	          1.45955448	          0.21114534	        -11.72698198	         -3.03691092	         -8.79659647	        -13.63140012	          4.96834981	         34.96691698	        -12.49912151	         -1.95820167	         -8.92329148	          0.01267654	          0.18427448	          0.03933103	          0.05369509	          0.18509872	          0.05519986	          0.03596924	          0.02389264	          0.07353218	          0.01683120	          0.01376880	          0.01238968	          0.01238860	          0.33635172	          0.01000020	          0.01000004	          0.01000153	          0.03437410	          0.01000017	          0.02400461	          0.06307400	          0.01535757	          0.01000031	          0.01000020	          0.01231356	          0.21754798	          0.21688009	          0.01000001	
          0.02866222	         -3.39180162	         -0.93877586	          8.14577152	          0.03847377	          0.99428091	         -0.00141922	         22.62827891	         -0.57266863	        -10.58011741	         -1.78988433	          0.64168602	          0.20444674	        -12.10386937	         -3.51447723	         -9.40633274	        -14.72195668	          3.87597108	         36.40454879	        -11.86921922	         -1.36893332	         -9.08208781	          0.01023263	          0.14874619	          0.03174798	          0.09531755	          0.14941166	          0.06145103	          0.02903457	          0.05476357	          0.05935511	          0.01358614	          0.01111431	          0.01000097	          0.01000009	          0.38733970	          0.01000023	          0.01000003	          0.01000014	          0.02774674	          0.01000012	          0.01937811	          0.05091335	          0.01239662	          0.01000066	          0.01000043	          0.01505189	          0.17560465	          0.19145677	          0.01000003	
          0.04299333	         -3.45533934	         -1.15847216	          7.98267311	          0.05778396	          0.99331726	         -0.00013931	         21.90701706	         -0.16842219	        -10.89050511	         -2.19202172	         -0.12661860	          0.17160684	        -12.20032595	         -4.07188971	        -10.02504458	        -16.30520069	          2.59088216	         37.71792712	        -11.26791828	         -0.73445996	         -9.19365766	          0.01238519	          0.12006779	          0.02562695	          0.13736232	          0.12060544	          0.06170902	          0.02343681	          0.06839807	          0.04791139	          0.01096675	          0.03204974	          0.01000014	          0.01000007	          0.41310956	          0.03083924	          0.01000002	          0.01000006	          0.02239715	          0.01000009	          0.03310743	          0.04109728	          0.01000656	          0.01000147	          0.01000038	          0.01901327	          0.14174791	          0.15454378	          0.01000001	
          0.05732445	         -3.50226587	         -1.40245469	          7.79014101	          0.07673794	          0.99323509	          0.00122513	         21.22937658	          0.26192137	        -11.16991400	         -2.72029632	         -0.56889254	          0.13943640	        -11.94383219	         -4.71750781	        -10.64446644	        -18.47011294	          1.12995394	         38.69562601	        -10.72568733	         -0.06414539	         -9.26108365	          0.01000027	          0.09691861	          0.02068607	          0.16840406	          0.09966217	          0.05933139	          0.01891831	          0.09332860	          0.03867403	          0.01000008	          0.04460329	          0.01000046	          0.01000023	          0.40954643	          0.07452859	          0.01000228	          0.01000010	          0.01807896	          0.02530601	          0.05804668	          0.03317377	          0.01000005	          0.01000023	          0.01000011	          0.01534763	          0.11441878	          0.12474759	          0.01000002	
          0.07165556	         -3.53493299	         -1.65103562	          7.57937057	          0.09511393	          0.99416001	          0.00263933	         20.58683226	          0.69994931	        -11.35669326	         -3.33710575	         -0.67624748	          0.11511818	        -11.27441089	         -5.44459117	        -11.30774731	        -21.28493364	         -0.46158314	         39.03560294	        -10.26371105	          0.61813366	         -9.29266901	          0.01060356	          0.07823261	          0.01669780	          0.17269443	          0.10230436	          0.06542235	          0.01527101	          0.09434245	          0.03121764	          0.01000011	          0.06606493	          0.01000078	          0.01125608	          0.38466271	          0.06452612	          0.01000175	          0.01000007	          0.01459332	          0.06961034	          0.06560804	          0.02677805	          0.01000002	          0.01000056	          0.01000009	          0.01238861	          0.09235873	          0.10069614	          0.01000003	
          0.08598667	         -3.55388413	         -1.85110107	          7.34743520	          0.11285299	          0.99600982	          0.00405794	         19.93682017	          1.09368387	        -11.47627043	         -3.95238688	         -0.55200799	          0.10331458	        -10.18225597	         -6.21862421	        -12.07625368	        -24.78630933	         -2.05569758	         38.33734999	         -9.89143343	          1.25370585	         -9.28677297	          0.01238926	          0.06314929	          0.01347850	          0.16123765	          0.12928805	          0.07290556	          0.01232703	          0.09416427	          0.02519886	          0.01000009	          0.07366871	          0.01000063	          0.01090592	          0.35200688	          0.05208552	          0.01000014	          0.01000008	          0.01177972	          0.09977771	          0.07447360	          0.02161759	          0.01000001	          0.01000075	          0.01000007	          0.01000010	          0.07455188	          0.08128183	          0.01000016	
          0.10031778	         -3.55756109	         -1.95432187	          7.08833485	          0.13002613	          0.99855276	          0.00544327	         19.22968643	          1.39627979	        -11.56925520	         -4.48211490	         -0.27692985	          0.10592206	         -8.71314220	         -7.00869802	        -12.93779378	        -28.88632779	         -3.69992506	         36.54596803	         -9.60377257	          1.78922202	         -9.23770561	          0.01000099	          0.05097406	          0.01238882	          0.14455532	          0.13658161	          0.07508695	          0.01000081	          0.11891676	          0.02034050	          0.01000005	          0.07771988	          0.01000034	          0.01000019	          0.31761209	          0.04204343	          0.01022586	          0.01000019	          0.01000001	          0.14840968	          0.07156218	          0.03426189	          0.01000003	          0.01000025	          0.01000005	          0.01000001	          0.06017821	          0.06561061	          0.04211923	
